HIERARCHY
ROOT Hips
{
	OFFSET 0.00000 0.00000 0.00000
	CHANNELS 6 Xposition Yposition Zposition Zrotation Yrotation Xrotation 
	JOINT RightUpLegDummy
	{
		OFFSET 0 0 0
		CHANNELS 3 Zrotation Yrotation Xrotation
		JOINT RightUpLeg
		{
			OFFSET -3.52197 -3.41223 0.04002
			CHANNELS 3 Zrotation Yrotation Xrotation
			JOINT RightLeg
			{
				OFFSET -1.06336 -17.58347 1.60435
				CHANNELS 3 Zrotation Yrotation Xrotation
				JOINT RightFoot
				{
					OFFSET -0.27018 -17.05419 -1.63900
					CHANNELS 3 Zrotation Yrotation Xrotation
					JOINT RightToes
					{
						OFFSET 0.00298 -1.73825 3.34613
						CHANNELS 3 Zrotation Yrotation Xrotation
						End Site
						{
							OFFSET 0.00480 -0.05416 3.85043
						}
					}
				}
			}
		}
	}
	JOINT SpineDummy
	{
		OFFSET 0 0 0
		CHANNELS 3 Zrotation Yrotation Xrotation
		JOINT Spine
		{
			OFFSET 0.00000 4.14613 0.00000
			CHANNELS 3 Zrotation Yrotation Xrotation
			JOINT Spine1
			{
				OFFSET 0.00000 10.93369 0.05002
				CHANNELS 3 Zrotation Yrotation Xrotation
				JOINT HEadDummy
				{
					OFFSET 0 0 0
					CHANNELS 3 Zrotation Yrotation Xrotation
					JOINT Head
					{
						OFFSET 0.00000 5.52901 0.00438
						CHANNELS 3 Zrotation Yrotation Xrotation
						End Site
						{
							OFFSET -0.11417 7.29012 0.98962
						}
					}
				}
				JOINT LeftShoulder1Dummy
				{
					OFFSET 0 0 0
					CHANNELS 3 Zrotation Yrotation Xrotation
					JOINT LeftShoulder1
					{
						OFFSET 3.53937 -0.14262 -0.08662
						CHANNELS 3 Zrotation Yrotation Xrotation
						JOINT LeftArm
						{
							OFFSET 4.04833 -0.00133 0.12681
							CHANNELS 3 Zrotation Yrotation Xrotation
							JOINT LeftForeArm
							{
								OFFSET 9.67557 0.03289 -0.56117
								CHANNELS 3 Zrotation Yrotation Xrotation
								JOINT LeftHand
								{
									OFFSET 10.17679 0.06873 0.40307
									CHANNELS 3 Zrotation Yrotation Xrotation
									End Site
									{
										OFFSET 6.59293 -0.21483 0.59213
									}
								}
							}
						}
					}
				}
				JOINT RightShoulderDummy
				{
					OFFSET 0 0 0
					CHANNELS 3 Zrotation Yrotation Xrotation
					JOINT RightShoulder
					{
						OFFSET -3.53937 -0.14262 -0.08660
						CHANNELS 3 Zrotation Yrotation Xrotation
						JOINT RightArm
						{
							OFFSET -4.04833 -0.00132 0.12683
							CHANNELS 3 Zrotation Yrotation Xrotation
							JOINT RightForeArm
							{
								OFFSET -9.67570 0.03289 -0.56114
								CHANNELS 3 Zrotation Yrotation Xrotation
								JOINT RightHand
								{
									OFFSET -10.17679 0.06867 0.40304
									CHANNELS 3 Zrotation Yrotation Xrotation
									End Site
									{
										OFFSET -6.54841 -0.21495 0.59212
									}
								}
							}
						}
					}
				}
			}
		}
	}
	JOINT LeftUpLegDummy
	{
		OFFSET 0 0 0
		CHANNELS 3 Zrotation Yrotation Xrotation
		JOINT LeftUpLeg
		{
			OFFSET 3.52197 -3.41223 0.04002
			CHANNELS 3 Zrotation Yrotation Xrotation
			JOINT LeftLeg
			{
				OFFSET 1.08359 -17.35354 1.60336
				CHANNELS 3 Zrotation Yrotation Xrotation
				JOINT LeftFoot
				{
					OFFSET 0.24986 -17.28405 -1.63802
					CHANNELS 3 Zrotation Yrotation Xrotation
					JOINT LeftToes
					{
						OFFSET -0.01575 -1.73822 3.34610
						CHANNELS 3 Zrotation Yrotation Xrotation
						End Site
						{
							OFFSET 0.03150 -0.01868 3.85031
						}
					}
				}
			}
		}
	}
}
MOTION
Frames: 16
Frame Time: 0.033333
10.2711 40.9621 0.6972 175.3130 -84.2959 -174.3670 0.0000 0.0000 0.0000 -4.9687 -5.6711 -2.7693 -1.6929 3.3038 3.7532 -1.3679 0.1399 -2.4870 0.0000 0.0000 -0.0000 0.0000 0.0000 0.0000 0.4753 1.0509 -2.2228 -0.9476 1.3075 2.3057 0.0000 0.0000 0.0000 2.6747 -8.2994 -0.9903 0.0000 0.0000 0.0000 1.6336 3.7011 0.0697 7.0179 -13.6982 -34.2291 -8.2007 5.2196 41.8398 2.8692 -3.4279 -0.1776 0.0000 0.0000 0.0000 -1.3790 -1.0674 0.2083 -3.4816 12.3907 -27.2394 4.8213 -5.5202 24.9498 -5.0315 0.0725 -0.2020 0.0000 0.0000 0.0000 6.3170 7.8906 0.2765 1.3171 5.2497 -0.9520 -0.8097 0.0908 0.7568 -0.0000 0.0000 -0.0000
10.2751 40.9607 0.6972 175.2390 -84.3075 -174.3090 0.0000 0.0000 0.0000 -4.9767 -5.6600 -2.7475 -1.7068 3.3106 3.7357 -1.3885 0.1413 -2.4841 0.0000 0.0000 -0.0000 0.0000 0.0000 0.0000 0.4754 1.0497 -2.2122 -0.9661 1.3065 2.3197 0.0000 0.0000 0.0000 2.6803 -8.2994 -1.0167 0.0000 0.0000 0.0000 1.6012 3.7064 0.0697 7.0171 -13.7471 -34.2284 -8.2065 5.2171 41.8291 2.9108 -3.3653 -0.1781 0.0000 0.0000 0.0000 -1.3788 -1.0674 0.2083 -3.4656 12.4251 -27.3011 4.7829 -5.5191 25.0675 -4.9102 0.1493 -0.1999 0.0000 0.0000 0.0000 6.3170 7.9104 0.2398 1.3081 5.2301 -0.8635 -0.8393 0.0927 0.7331 -0.0000 0.0000 -0.0000
10.2815 40.9582 0.6972 175.0880 -84.3464 -174.2030 0.0000 0.0000 0.0000 -4.9900 -5.6518 -2.7171 -1.7308 3.2821 3.7738 -1.3669 0.1400 -2.5224 0.0000 0.0000 -0.0000 0.0000 0.0000 0.0000 0.4659 1.0403 -2.1547 -0.9701 1.2971 2.3108 0.0000 0.0000 0.0000 2.7488 -8.2994 -1.0045 0.0000 0.0000 0.0000 1.5745 3.7204 0.0697 6.9970 -13.8265 -34.2267 -8.2168 5.2127 41.8342 3.0063 -3.3110 -0.1834 0.0000 0.0000 0.0000 -1.3715 -1.0683 0.2083 -3.4519 12.4915 -27.3686 4.7425 -5.5176 25.2307 -4.7613 0.1964 -0.1955 0.0000 0.0000 0.0000 6.3170 7.9178 0.2131 1.3086 5.1841 -0.7497 -0.8675 0.0945 0.6904 -0.0000 0.0000 -0.0000
10.2847 40.9571 0.6966 174.8900 -84.4083 -174.0660 0.0000 0.0000 0.0000 -5.0061 -5.6633 -2.6733 -1.7467 3.2257 3.8395 -1.3092 0.1365 -2.5832 0.0000 0.0000 -0.0000 0.0000 0.0000 0.0000 0.4278 1.0184 -2.1188 -0.9337 1.2706 2.3441 0.0000 0.0000 0.0000 2.8069 -8.2983 -0.9577 0.0000 0.0000 0.0000 1.5947 3.7442 0.0697 6.9470 -13.9066 -34.2295 -8.2191 5.2116 41.8810 3.1145 -3.3332 -0.1913 0.0000 0.0000 0.0000 -1.3471 -1.0773 0.2083 -3.4761 12.5739 -27.4190 4.7260 -5.5168 25.3107 -4.6642 0.1989 -0.1915 0.0000 0.0000 0.0000 6.3181 7.9114 0.2430 1.3059 5.1095 -0.7146 -0.8600 0.0940 0.6712 -0.0000 0.0000 -0.0000
10.2822 40.9563 0.6943 174.7980 -84.4785 -174.0180 0.0000 0.0000 0.0000 -5.0092 -5.6767 -2.6261 -1.7528 3.1653 3.8815 -1.3023 0.1360 -2.5935 0.0000 0.0000 -0.0000 0.0000 0.0000 0.0000 0.3982 1.0017 -2.1831 -0.8710 1.2456 2.4708 0.0000 0.0000 0.0000 2.8021 -8.3019 -0.9188 0.0000 0.0000 0.0000 1.6069 3.7556 0.0697 6.9178 -13.9746 -34.2543 -8.2134 5.2140 41.9117 3.1583 -3.3561 -0.1948 0.0000 0.0000 0.0000 -1.3377 -1.0972 0.2083 -3.5164 12.6223 -27.4599 4.7220 -5.5171 25.2827 -4.5810 0.1805 -0.1875 0.0000 0.0000 0.0000 6.3270 7.9168 0.2947 1.2877 5.0276 -0.7465 -0.8351 0.0924 0.6877 -0.0000 0.0000 -0.0000
10.2764 40.9559 0.6920 174.7980 -84.5452 -174.0300 0.0000 0.0000 0.0000 -5.0033 -5.6831 -2.5976 -1.7555 3.1057 3.8966 -1.3383 0.1383 -2.5718 0.0000 0.0000 -0.0000 0.0000 0.0000 0.0000 0.3743 0.9956 -2.3085 -0.7760 1.2243 2.6023 0.0000 0.0000 0.0000 2.7893 -8.3321 -0.8614 0.0000 0.0000 0.0000 1.5636 3.7299 0.0697 6.9283 -14.0100 -34.2759 -8.2092 5.2151 41.9289 3.1254 -3.3389 -0.1917 0.0000 0.0000 0.0000 -1.3646 -1.0942 0.2083 -3.5428 12.5970 -27.4626 4.7280 -5.5180 25.1989 -4.5126 0.1154 -0.1825 0.0000 0.0000 0.0000 6.3441 7.9272 0.3123 1.2707 4.9669 -0.7748 -0.8315 0.0922 0.7066 -0.0000 0.0000 -0.0000
10.2720 40.9558 0.6896 174.6820 -84.6012 -173.9100 0.0000 0.0000 0.0000 -5.0147 -5.7062 -2.5864 -1.7483 3.0603 3.9071 -1.3268 0.1376 -2.5987 0.0000 0.0000 -0.0000 0.0000 0.0000 0.0000 0.3114 0.9928 -2.3893 -0.6444 1.1986 2.6351 0.0000 0.0000 0.0000 2.8103 -8.3660 -0.7637 0.0000 0.0000 0.0000 1.5201 3.6841 0.0697 6.9121 -14.0117 -34.2823 -8.2013 5.2133 42.0169 3.1208 -3.3727 -0.1925 0.0000 0.0000 0.0000 -1.4062 -1.0704 0.2083 -3.5637 12.5431 -27.4212 4.7480 -5.5188 25.1172 -4.5327 0.0362 -0.1807 0.0000 0.0000 0.0000 6.3380 7.9141 0.3013 1.2738 4.9320 -0.7802 -0.8457 0.0931 0.7068 -0.0000 0.0000 -0.0000
10.2704 40.9558 0.6862 174.4510 -84.6404 -173.6820 0.0000 0.0000 0.0000 -5.0411 -5.7500 -2.5834 -1.7269 3.0511 3.9343 -1.2904 0.1354 -2.6447 0.0000 0.0000 -0.0000 0.0000 0.0000 0.0000 0.2483 0.9919 -2.4077 -0.5510 1.1823 2.6137 0.0000 0.0000 0.0000 2.8323 -8.3770 -0.7071 0.0000 0.0000 0.0000 1.5400 3.6583 0.0697 6.8435 -14.0148 -34.3041 -8.1764 5.2105 42.1538 3.2181 -3.4814 -0.2015 0.0000 0.0000 0.0000 -1.4372 -1.0696 0.2083 -3.5778 12.5321 -27.3915 4.7627 -5.5190 25.0797 -4.6557 0.0545 -0.1863 0.0000 0.0000 0.0000 6.3151 7.8845 0.3016 1.2863 4.9102 -0.7911 -0.8437 0.0930 0.7083 -0.0000 0.0000 -0.0000
10.2696 40.9561 0.6824 174.3170 -84.6712 -173.5550 0.0000 0.0000 0.0000 -5.0518 -5.7794 -2.5919 -1.7092 3.0562 3.9820 -1.3306 0.1380 -2.6291 0.0000 0.0000 -0.0000 0.0000 0.0000 0.0000 0.2671 0.9915 -2.4302 -0.5730 1.1904 2.6304 0.0000 0.0000 0.0000 2.8450 -8.3907 -0.7547 0.0000 0.0000 0.0000 1.5815 3.6549 0.0697 6.8103 -14.0387 -34.3584 -8.1439 5.2096 42.2109 3.3218 -3.5122 -0.2094 0.0000 0.0000 0.0000 -1.4567 -1.0977 0.2083 -3.5568 12.5473 -27.3944 4.7562 -5.5180 25.1076 -4.7818 0.1690 -0.1952 0.0000 0.0000 0.0000 6.3091 7.8743 0.3048 1.2849 4.8847 -0.7950 -0.8293 0.0921 0.7182 -0.0000 0.0000 -0.0000
10.2685 40.9564 0.6787 174.2200 -84.7171 -173.4620 0.0000 0.0000 0.0000 -5.0526 -5.7877 -2.5924 -1.7069 3.0264 4.0121 -1.3977 0.1422 -2.6132 0.0000 0.0000 -0.0000 0.0000 0.0000 0.0000 0.3173 0.9886 -2.4688 -0.6461 1.2025 2.6488 0.0000 0.0000 0.0000 2.8842 -8.4359 -0.8130 0.0000 0.0000 0.0000 1.5856 3.6422 0.0697 6.8640 -14.0563 -34.4048 -8.1279 5.2101 42.1983 3.3135 -3.3865 -0.2061 0.0000 0.0000 0.0000 -1.4535 -1.1024 0.2083 -3.5195 12.5167 -27.3742 4.7544 -5.5185 25.1441 -4.8190 0.2102 -0.1993 0.0000 0.0000 0.0000 6.3186 7.8863 0.2802 1.2676 4.8358 -0.7557 -0.8329 0.0923 0.7109 -0.0000 0.0000 -0.0000
10.2670 40.9568 0.6747 173.9660 -84.7748 -173.2200 0.0000 0.0000 0.0000 -5.0744 -5.8074 -2.5507 -1.7020 2.9788 3.9887 -1.3696 0.1407 -2.6823 0.0000 0.0000 -0.0000 0.0000 0.0000 0.0000 0.2875 0.9787 -2.4827 -0.6517 1.1957 2.6046 0.0000 0.0000 0.0000 2.9241 -8.4652 -0.7701 0.0000 0.0000 0.0000 1.5804 3.6186 0.0697 6.9183 -14.0461 -34.4007 -8.1308 5.2086 42.2619 3.2613 -3.2787 -0.2001 0.0000 0.0000 0.0000 -1.4107 -1.0641 0.2083 -3.5240 12.4482 -27.3293 4.7724 -5.5188 25.0998 -4.7821 0.0973 -0.2011 0.0000 0.0000 0.0000 6.3169 7.8942 0.2588 1.2476 4.7649 -0.7101 -0.8400 0.0928 0.6894 -0.0000 0.0000 -0.0000
10.2655 40.9572 0.6730 173.7520 -84.8002 -173.0330 0.0000 0.0000 0.0000 -5.0993 -5.8330 -2.4959 -1.7015 2.9814 3.9571 -1.3194 0.1375 -2.7230 0.0000 0.0000 -0.0000 0.0000 0.0000 0.0000 0.2308 0.9784 -2.5050 -0.6113 1.1905 2.5844 0.0000 0.0000 0.0000 2.8788 -8.4144 -0.6725 0.0000 0.0000 0.0000 1.5928 3.6159 0.0697 6.9038 -14.0149 -34.3502 -8.1441 5.2056 42.3953 3.3169 -3.3577 -0.2057 0.0000 0.0000 0.0000 -1.3674 -1.0390 0.2079 -3.5557 12.4354 -27.3525 4.7703 -5.5196 25.0285 -4.7325 -0.0159 -0.2016 0.0000 0.0000 0.0000 6.3114 7.8967 0.2929 1.2295 4.7148 -0.7295 -0.8168 0.0913 0.6916 -0.0000 0.0000 -0.0000
10.2641 40.9576 0.6762 173.8400 -84.7826 -173.1460 0.0000 0.0000 0.0000 -5.0945 -5.8298 -2.4813 -1.7086 3.0294 3.9763 -1.3704 0.1405 -2.6264 0.0000 0.0000 -0.0000 0.0000 0.0000 0.0000 0.2673 0.9895 -2.5865 -0.6218 1.2052 2.6742 0.0000 0.0000 0.0000 2.7456 -8.3171 -0.6074 0.0000 0.0000 0.0000 1.5746 3.6298 0.0697 6.8899 -13.9553 -34.2692 -8.1776 5.2045 42.4284 3.4585 -3.5171 -0.2192 0.0000 0.0000 0.0000 -1.3966 -1.0715 0.2048 -3.5295 12.5183 -27.4496 4.7260 -5.5193 25.0861 -4.7097 0.0084 -0.2008 0.0000 0.0000 0.0000 6.3215 7.9079 0.3531 1.2158 4.7156 -0.7786 -0.7906 0.0896 0.7126 -0.0000 0.0000 -0.0000
10.2650 40.9579 0.6823 173.9090 -84.7823 -173.2650 0.0000 0.0000 0.0000 -5.0993 -5.8320 -2.4428 -1.7172 3.0585 3.9900 -1.3893 0.1415 -2.5445 0.0000 0.0000 -0.0000 0.0000 0.0000 0.0000 0.3364 0.9874 -2.6024 -0.6739 1.2138 2.7212 0.0000 0.0000 0.0000 2.6325 -8.2729 -0.5405 0.0000 0.0000 0.0000 1.5225 3.6088 0.0710 6.9386 -13.8688 -34.1597 -8.2407 5.2062 42.3241 3.5238 -3.5503 -0.2245 0.0000 0.0000 0.0000 -1.4848 -1.1298 0.1973 -3.4344 12.6149 -27.4823 4.7024 -5.5181 25.2092 -4.7579 0.0594 -0.1989 0.0000 0.0000 0.0000 6.3247 7.9145 0.3869 1.2175 4.7266 -0.7448 -0.7975 0.0900 0.7050 -0.0000 0.0000 -0.0000
10.2765 40.9580 0.6906 173.6230 -84.8112 -173.1280 0.0000 0.0000 0.0000 -5.1723 -5.9062 -2.2528 -1.7020 3.1217 3.9019 -1.1965 0.1285 -2.5702 0.0000 0.0000 -0.0000 0.0000 0.0000 0.0000 0.3489 0.9815 -2.3501 -0.7477 1.2228 2.5330 0.0000 0.0000 0.0000 2.6171 -8.3084 -0.4425 0.0000 0.0000 0.0000 1.5359 3.5351 0.0767 6.9776 -13.8276 -34.0467 -8.3095 5.2075 42.2316 3.4733 -3.4542 -0.2187 0.0000 0.0000 0.0000 -1.5172 -1.1615 0.1938 -3.3616 12.6186 -27.4053 4.7386 -5.5186 25.1429 -4.9124 -0.0317 -0.1961 0.0000 0.0000 0.0000 6.2994 7.9123 0.4498 1.2294 4.7068 -0.6133 -0.7821 0.0881 0.6647 -0.0000 0.0000 -0.0000
10.3005 40.9579 0.7130 173.3180 -84.7313 -173.0560 0.0000 0.0000 0.0000 -5.2987 -6.0197 -1.9962 -1.6639 3.4071 3.7735 -0.8674 0.1035 -2.4609 0.0000 0.0000 -0.0000 0.0000 0.0000 0.0000 0.4458 1.0318 -1.9088 -0.9712 1.3124 2.2374 0.0000 0.0000 0.0000 2.6514 -8.3350 -0.4187 0.0000 0.0000 0.0000 1.6335 3.4576 0.0822 6.9433 -13.8919 -33.9872 -8.3443 5.2061 42.2795 3.4115 -3.3760 -0.2126 0.0000 0.0000 0.0000 -1.4276 -1.1567 0.1968 -3.3787 12.5414 -27.3601 4.7650 -5.5206 24.9424 -5.1075 -0.2058 -0.1943 0.0000 0.0000 0.0000 6.2625 7.9403 0.5913 1.2187 4.7444 -0.4441 -0.6826 0.0772 0.6106 -0.0000 0.0000 -0.0000
